<svg width="24" height="24" viewBox="0 0 24 24" fill="none" xmlns="http://www.w3.org/2000/svg">
<path fill-rule="evenodd" clip-rule="evenodd" d="M12 6.25C8.82436 6.25 6.25 8.82436 6.25 12C6.25 15.1756 8.82436 17.75 12 17.75C15.1756 17.75 17.75 15.1756 17.75 12C17.75 8.82436 15.1756 6.25 12 6.25ZM4.75 12C4.75 7.99594 7.99594 4.75 12 4.75C16.0041 4.75 19.25 7.99594 19.25 12C19.25 16.0041 16.0041 19.25 12 19.25C7.99594 19.25 4.75 16.0041 4.75 12Z" fill="#FDAE51"/>
<path fill-rule="evenodd" clip-rule="evenodd" d="M12 1.25C12.4142 1.25 12.75 1.58579 12.75 2V2.08C12.75 2.49421 12.4142 2.83 12 2.83C11.5858 2.83 11.25 2.49421 11.25 2.08V2C11.25 1.58579 11.5858 1.25 12 1.25ZM4.32967 4.32967C4.62256 4.03678 5.09744 4.03678 5.39033 4.32967L5.52033 4.45967C5.81322 4.75256 5.81322 5.22744 5.52033 5.52033C5.22744 5.81322 4.75256 5.81322 4.45967 5.52033L4.32967 5.39033C4.03678 5.09744 4.03678 4.62256 4.32967 4.32967ZM19.6703 4.32967C19.9632 4.62256 19.9632 5.09744 19.6703 5.39033L19.5403 5.52033C19.2474 5.81322 18.7726 5.81322 18.4797 5.52033C18.1868 5.22744 18.1868 4.75256 18.4797 4.45967L18.6097 4.32967C18.9026 4.03678 19.3774 4.03678 19.6703 4.32967ZM1.25 12C1.25 11.5858 1.58579 11.25 2 11.25H2.08C2.49421 11.25 2.83 11.5858 2.83 12C2.83 12.4142 2.49421 12.75 2.08 12.75H2C1.58579 12.75 1.25 12.4142 1.25 12ZM21.17 12C21.17 11.5858 21.5058 11.25 21.92 11.25H22C22.4142 11.25 22.75 11.5858 22.75 12C22.75 12.4142 22.4142 12.75 22 12.75H21.92C21.5058 12.75 21.17 12.4142 21.17 12ZM5.52033 18.4797C5.81322 18.7726 5.81322 19.2474 5.52033 19.5403L5.39033 19.6703C5.09744 19.9632 4.62256 19.9632 4.32967 19.6703C4.03678 19.3774 4.03678 18.9026 4.32967 18.6097L4.45967 18.4797C4.75256 18.1868 5.22744 18.1868 5.52033 18.4797ZM18.4797 18.4797C18.7726 18.1868 19.2474 18.1868 19.5403 18.4797L19.6703 18.6097C19.9632 18.9026 19.9632 19.3774 19.6703 19.6703C19.3774 19.9632 18.9026 19.9632 18.6097 19.6703L18.4797 19.5403C18.1868 19.2474 18.1868 18.7726 18.4797 18.4797ZM12 21.17C12.4142 21.17 12.75 21.5058 12.75 21.92V22C12.75 22.4142 12.4142 22.75 12 22.75C11.5858 22.75 11.25 22.4142 11.25 22V21.92C11.25 21.5058 11.5858 21.17 12 21.17Z" fill="#FDAE51"/>
</svg>
