<svg width="24" height="24" viewBox="0 0 24 24" fill="none" xmlns="http://www.w3.org/2000/svg">
<path fill-rule="evenodd" clip-rule="evenodd" d="M8.70535 4.59124C9.22704 5.10274 9.08313 5.84457 8.87822 6.3352L8.87774 6.33634C8.587 7.02927 8.42682 7.78964 8.43277 8.59498L8.43278 8.59753C8.44468 11.5952 10.831 14.1114 13.6947 14.2336C14.1202 14.252 14.5267 14.2213 14.9211 14.1476L15.0588 14.8849L14.9186 14.1481C15.4356 14.0497 16.2088 14.0595 16.5893 14.7086C16.7722 15.0208 16.7766 15.3613 16.7121 15.644C16.6485 15.9234 16.5101 16.191 16.3363 16.4366C14.8691 18.5294 12.4167 19.8663 9.66909 19.7421C5.76319 19.563 2.53651 16.3159 2.26999 12.3466C2.02667 8.82812 4.02885 5.74414 6.9708 4.45014C7.44848 4.23911 8.18446 4.08053 8.70535 4.59124ZM7.44261 5.88317C7.10869 6.72314 6.92585 7.63996 6.9328 8.60477C6.94841 12.3667 9.93097 15.5742 13.6305 15.7322C14.122 15.7535 14.5962 15.7231 15.0575 15.6466C13.8619 17.3038 11.9103 18.3418 9.73701 18.2436M7.44261 5.88317C5.14161 6.9603 3.57093 9.42037 3.76646 12.2437L3.76657 12.2454C3.98366 15.4836 6.62311 18.1006 9.73701 18.2436" fill="#73818E"/>
</svg>
