<svg id="logo" width="193" height="40" viewBox="0 0 193 40" fill="none" xmlns="http://www.w3.org/2000/svg">
<path d="M26.6667 0H13.3333C13.3333 7.35555 7.35555 13.3333 0 13.3333V26.6667C14.7333 26.6667 26.6667 14.7333 26.6667 0Z" fill="#1B2BBD"/>
<path d="M40 13.3334V26.6667C32.6445 26.6667 26.6667 32.6445 26.6667 40H13.3334C13.3334 25.2667 25.2667 13.3334 40 13.3334Z" fill="#AC56CA"/>
<path d="M56.3 27.24C56.7533 27.24 57.16 27.1733 57.52 27.04C57.88 26.9067 58.2 26.7133 58.48 26.46C58.76 26.2067 59 25.9067 59.2 25.56C59.4133 25.2133 59.6 24.82 59.76 24.38L63.76 13H61.14L58.56 21.48H58.36L54.98 13H52.16L57.12 24.32C56.9867 24.5467 56.8067 24.72 56.58 24.84C56.3533 24.96 56.0933 25.02 55.8 25.02C55.52 25.02 55.24 24.98 54.96 24.9C54.68 24.8067 54.42 24.7067 54.18 24.6V26.82C54.5133 26.9533 54.86 27.0533 55.22 27.12C55.58 27.2 55.94 27.24 56.3 27.24ZM64.1813 27H66.6613V22.56H70.9813V27H73.4613V16.6H70.9813V20.56H66.6613V16.6H64.1813V27ZM76.2516 27H78.6516L83.0716 19.82H83.2516V27H85.6716V16.6H82.9516L78.8516 23.22H78.6916V16.6H76.2516V27ZM88.4781 27H93.7781C94.2981 27 94.7648 26.9333 95.1781 26.8C95.6048 26.6533 95.9715 26.46 96.2781 26.22C96.5981 25.98 96.8381 25.6867 96.9981 25.34C97.1581 24.9933 97.2381 24.6133 97.2381 24.2V23.86C97.2381 23.3533 97.0915 22.9067 96.7981 22.52C96.5048 22.12 96.1048 21.8067 95.5981 21.58C95.9581 21.34 96.2381 21.0467 96.4381 20.7C96.6381 20.3533 96.7381 19.98 96.7381 19.58V19.24C96.7381 18.84 96.6581 18.48 96.4981 18.16C96.3515 17.84 96.1381 17.5667 95.8581 17.34C95.5781 17.1 95.2448 16.92 94.8581 16.8C94.4715 16.6667 94.0381 16.6 93.5581 16.6H88.4781V27ZM90.8381 25.22V22.5H93.1781C93.6848 22.5 94.0848 22.6133 94.3781 22.84C94.6715 23.0533 94.8181 23.36 94.8181 23.76V23.96C94.8181 24.3333 94.6715 24.64 94.3781 24.88C94.0848 25.1067 93.6781 25.22 93.1581 25.22H90.8381ZM90.8381 20.9V18.38H92.8381C93.3181 18.38 93.6848 18.4867 93.9381 18.7C94.2048 18.9 94.3381 19.1933 94.3381 19.58V19.72C94.3381 20.08 94.2048 20.3667 93.9381 20.58C93.6715 20.7933 93.2981 20.9 92.8181 20.9H90.8381ZM103.679 27.18H103.939C104.366 27.18 104.779 27.1333 105.179 27.04C105.579 26.9467 105.959 26.82 106.319 26.66C106.693 26.5 107.033 26.3 107.339 26.06C107.659 25.82 107.939 25.5533 108.179 25.26L106.819 23.76C106.513 24.1333 106.126 24.4533 105.659 24.72C105.206 24.9733 104.666 25.1 104.039 25.1H103.839C103.439 25.1 103.073 25.04 102.739 24.92C102.406 24.8 102.119 24.6333 101.879 24.42C101.653 24.2067 101.466 23.9467 101.319 23.64C101.173 23.32 101.079 22.9667 101.039 22.58V22.56H108.499V21.22C108.499 20.5133 108.386 19.8667 108.159 19.28C107.933 18.6933 107.613 18.1867 107.199 17.76C106.786 17.3333 106.293 17.0067 105.719 16.78C105.146 16.54 104.513 16.42 103.819 16.42H103.619C102.859 16.42 102.173 16.5533 101.559 16.82C100.946 17.0733 100.413 17.4333 99.9594 17.9C99.5194 18.3533 99.1794 18.9 98.9394 19.54C98.6994 20.18 98.5794 20.8867 98.5794 21.66V22.06C98.5794 22.82 98.6994 23.52 98.9394 24.16C99.1794 24.7867 99.5194 25.3267 99.9594 25.78C100.413 26.22 100.953 26.5667 101.579 26.82C102.219 27.06 102.919 27.18 103.679 27.18ZM101.079 20.9C101.146 20.5 101.246 20.1467 101.379 19.84C101.526 19.52 101.706 19.2533 101.919 19.04C102.133 18.8267 102.379 18.66 102.659 18.54C102.939 18.42 103.253 18.36 103.599 18.36H103.779C104.126 18.36 104.439 18.42 104.719 18.54C104.999 18.66 105.239 18.8267 105.439 19.04C105.653 19.2533 105.813 19.5133 105.919 19.82C106.039 20.1267 106.106 20.4667 106.119 20.84V20.9H101.079ZM110.548 31H113.028V25.98C113.428 26.3667 113.882 26.6667 114.388 26.88C114.908 27.08 115.482 27.18 116.108 27.18H116.288C116.968 27.18 117.588 27.06 118.148 26.82C118.722 26.5667 119.208 26.2133 119.608 25.76C120.022 25.3067 120.335 24.7733 120.548 24.16C120.775 23.5333 120.888 22.8467 120.888 22.1V21.5C120.888 20.7533 120.775 20.0733 120.548 19.46C120.335 18.8333 120.022 18.2933 119.608 17.84C119.208 17.3867 118.722 17.04 118.148 16.8C117.588 16.5467 116.968 16.42 116.288 16.42H116.108C115.428 16.42 114.802 16.5467 114.228 16.8C113.668 17.04 113.188 17.3867 112.788 17.84C112.762 17.6267 112.722 17.4067 112.668 17.18C112.628 16.9533 112.575 16.76 112.508 16.6H110.548V31ZM115.588 25.2C115.202 25.2 114.848 25.1267 114.528 24.98C114.222 24.8333 113.955 24.62 113.728 24.34C113.515 24.06 113.342 23.7267 113.208 23.34C113.088 22.94 113.028 22.4933 113.028 22V21.52C113.028 21.0533 113.088 20.6267 113.208 20.24C113.328 19.8533 113.502 19.5267 113.728 19.26C113.955 18.98 114.222 18.7667 114.528 18.62C114.848 18.4733 115.202 18.4 115.588 18.4H115.748C116.135 18.4 116.482 18.4733 116.788 18.62C117.108 18.7667 117.382 18.98 117.608 19.26C117.835 19.5267 118.008 19.8533 118.128 20.24C118.248 20.6267 118.308 21.0533 118.308 21.52V22C118.308 22.4933 118.248 22.94 118.128 23.34C118.008 23.7267 117.835 24.06 117.608 24.34C117.382 24.62 117.108 24.8333 116.788 24.98C116.482 25.1267 116.135 25.2 115.748 25.2H115.588ZM127.369 27.16H127.549C128.469 27.16 129.289 26.96 130.009 26.56C130.729 26.16 131.342 25.5733 131.849 24.8L130.049 23.52C129.742 24.0533 129.389 24.46 128.989 24.74C128.602 25.0067 128.162 25.14 127.669 25.14H127.489C127.102 25.14 126.749 25.0667 126.429 24.92C126.109 24.7733 125.836 24.5667 125.609 24.3C125.396 24.02 125.222 23.6867 125.089 23.3C124.969 22.9133 124.909 22.4867 124.909 22.02V21.58C124.909 21.0867 124.969 20.6467 125.089 20.26C125.209 19.8733 125.369 19.5467 125.569 19.28C125.782 19 126.042 18.7933 126.349 18.66C126.656 18.5133 127.002 18.44 127.389 18.44H127.549C128.069 18.44 128.529 18.5733 128.929 18.84C129.329 19.0933 129.682 19.4933 129.989 20.04L131.789 18.84C131.309 18.0533 130.696 17.46 129.949 17.06C129.202 16.6467 128.382 16.44 127.489 16.44H127.309C126.602 16.44 125.942 16.5667 125.329 16.82C124.729 17.06 124.202 17.4067 123.749 17.86C123.309 18.3133 122.962 18.8533 122.709 19.48C122.469 20.0933 122.349 20.7667 122.349 21.5V22.06C122.349 22.8067 122.469 23.4933 122.709 24.12C122.962 24.7333 123.309 25.2733 123.749 25.74C124.189 26.1933 124.716 26.5467 125.329 26.8C125.942 27.04 126.622 27.16 127.369 27.16ZM133.673 27H136.073L140.493 19.82H140.673V27H143.093V16.6H140.373L136.273 23.22H136.113V16.6H133.673V27ZM147.74 27H150.22V18.64H153.14V16.6H144.82V18.64H147.74V27ZM158.972 27.18H159.232C159.659 27.18 160.072 27.1333 160.472 27.04C160.872 26.9467 161.252 26.82 161.612 26.66C161.986 26.5 162.326 26.3 162.632 26.06C162.952 25.82 163.232 25.5533 163.472 25.26L162.112 23.76C161.806 24.1333 161.419 24.4533 160.952 24.72C160.499 24.9733 159.959 25.1 159.332 25.1H159.132C158.732 25.1 158.366 25.04 158.032 24.92C157.699 24.8 157.412 24.6333 157.172 24.42C156.946 24.2067 156.759 23.9467 156.612 23.64C156.466 23.32 156.372 22.9667 156.332 22.58V22.56H163.792V21.22C163.792 20.5133 163.679 19.8667 163.452 19.28C163.226 18.6933 162.906 18.1867 162.492 17.76C162.079 17.3333 161.586 17.0067 161.012 16.78C160.439 16.54 159.806 16.42 159.112 16.42H158.912C158.152 16.42 157.466 16.5533 156.852 16.82C156.239 17.0733 155.706 17.4333 155.252 17.9C154.812 18.3533 154.472 18.9 154.232 19.54C153.992 20.18 153.872 20.8867 153.872 21.66V22.06C153.872 22.82 153.992 23.52 154.232 24.16C154.472 24.7867 154.812 25.3267 155.252 25.78C155.706 26.22 156.246 26.5667 156.872 26.82C157.512 27.06 158.212 27.18 158.972 27.18ZM156.372 20.9C156.439 20.5 156.539 20.1467 156.672 19.84C156.819 19.52 156.999 19.2533 157.212 19.04C157.426 18.8267 157.672 18.66 157.952 18.54C158.232 18.42 158.546 18.36 158.892 18.36H159.072C159.419 18.36 159.732 18.42 160.012 18.54C160.292 18.66 160.532 18.8267 160.732 19.04C160.946 19.2533 161.106 19.5133 161.212 19.82C161.332 20.1267 161.399 20.4667 161.412 20.84V20.9H156.372ZM167.447 27H169.927V18.64H172.847V16.6H164.527V18.64H167.447V27ZM180.124 27H182.684V16.58H182.804L188.544 27H191.164V13H188.624V22.94H188.544L183.064 13H180.124V27Z" fill="#20293A"/>
</svg>
