<svg width="24" height="24" viewBox="0 0 24 24" fill="none" xmlns="http://www.w3.org/2000/svg">
<path fill-rule="evenodd" clip-rule="evenodd" d="M8.26966 5.24968C11.2926 2.22679 16.2074 2.22679 19.2303 5.24968C22.2532 8.27258 22.2532 13.1875 19.2303 16.2103L15.3403 20.1003C13.6774 21.7632 10.9926 21.7632 9.32966 20.1003C7.66677 18.4374 7.66677 15.7526 9.32966 14.0897L11.7997 11.6197C12.0926 11.3268 12.5674 11.3268 12.8603 11.6197C13.1532 11.9126 13.1532 12.3875 12.8603 12.6803L10.3903 15.1503C9.31322 16.2275 9.31322 17.9626 10.3903 19.0397C11.4674 20.1168 13.2026 20.1168 14.2797 19.0397L18.1697 15.1497C20.6068 12.7126 20.6068 8.74745 18.1697 6.31034C15.7326 3.87324 11.7674 3.87324 9.33032 6.31034L5.09032 10.5503C3.04384 12.5968 3.04222 15.9228 5.09145 17.9808C5.38372 18.2743 5.38271 18.7492 5.08919 19.0415C4.79567 19.3337 4.3208 19.3327 4.02853 19.0392C1.39777 16.3972 1.39615 12.1232 4.02966 9.48968L8.26966 5.24968Z" fill="#73818E"/>
</svg>
