<svg width="24" height="24" viewBox="0 0 24 24" fill="none" xmlns="http://www.w3.org/2000/svg">
<path fill-rule="evenodd" clip-rule="evenodd" d="M3.06488 3.09467C4.39935 1.7602 6.39624 1.25 8.97021 1.25H14.9702C17.5442 1.25 19.5411 1.7602 20.8755 3.09467C22.21 4.42914 22.7202 6.42603 22.7202 9V15C22.7202 17.574 22.21 19.5709 20.8755 20.9053C19.5411 22.2398 17.5442 22.75 14.9702 22.75H8.97021C6.39624 22.75 4.39935 22.2398 3.06488 20.9053C1.73042 19.5709 1.22021 17.574 1.22021 15V9C1.22021 6.42603 1.73042 4.42914 3.06488 3.09467ZM4.12555 4.15533C3.21001 5.07086 2.72021 6.57397 2.72021 9V15C2.72021 17.426 3.21001 18.9291 4.12555 19.8447C5.04108 20.7602 6.54419 21.25 8.97021 21.25H14.9702C17.3962 21.25 18.8994 20.7602 19.8149 19.8447C20.7304 18.9291 21.2202 17.426 21.2202 15V9C21.2202 6.57397 20.7304 5.07086 19.8149 4.15533C18.8994 3.2398 17.3962 2.75 14.9702 2.75H8.97021C6.54419 2.75 5.04108 3.2398 4.12555 4.15533Z" fill="#73818E"/>
<path fill-rule="evenodd" clip-rule="evenodd" d="M14.9702 1.25C15.3844 1.25 15.7202 1.58579 15.7202 2V22C15.7202 22.4142 15.3844 22.75 14.9702 22.75C14.556 22.75 14.2202 22.4142 14.2202 22V2C14.2202 1.58579 14.556 1.25 14.9702 1.25Z" fill="#73818E"/>
<path fill-rule="evenodd" clip-rule="evenodd" d="M7.43989 8.90967C7.73278 8.61678 8.20765 8.61678 8.50055 8.90967L11.0605 11.4697C11.3534 11.7626 11.3534 12.2374 11.0605 12.5303L8.50055 15.0903C8.20765 15.3832 7.73278 15.3832 7.43989 15.0903C7.14699 14.7974 7.14699 14.3226 7.43989 14.0297L9.46955 12L7.43989 9.97033C7.14699 9.67744 7.14699 9.20256 7.43989 8.90967Z" fill="#73818E"/>
</svg>
