<svg width="24" height="24" viewBox="0 0 24 24" fill="none" xmlns="http://www.w3.org/2000/svg">
<path fill-rule="evenodd" clip-rule="evenodd" d="M5.30979 11.7498C4.61148 11.7498 3.99164 12.0636 3.57949 12.5657L3.55614 12.5941L3.54212 12.6081C3.20204 13.0501 3.01741 13.6165 3.07633 14.2278L3.0775 14.24L3.47686 19.2333C3.55806 20.06 3.62519 20.48 3.84515 20.7546C4.01698 20.9692 4.43121 21.2498 5.70979 21.2498H18.2898C19.5684 21.2498 19.9826 20.9692 20.1544 20.7546C20.3744 20.4801 20.4415 20.0601 20.5227 19.2333L20.923 14.2299L20.9241 14.2199C20.9909 13.5956 20.7928 13.0244 20.4228 12.579L20.3176 12.4522C19.9159 12.0224 19.3404 11.7498 18.6898 11.7498H5.30979ZM20.4495 12.6001C20.4554 12.606 20.4531 12.6041 20.4462 12.5968L20.4495 12.6001ZM2.4449 11.584C3.13281 10.7635 4.16198 10.2498 5.30979 10.2498H18.6898C19.8415 10.2498 20.862 10.7668 21.539 11.5694C21.5518 11.5833 21.5718 11.6059 21.5935 11.6348C21.6011 11.6449 21.6124 11.6603 21.6255 11.6806C22.2029 12.405 22.5234 13.346 22.4166 14.3691L22.0163 19.373C22.0134 19.4027 22.0104 19.4328 22.0074 19.4633C21.941 20.1503 21.856 21.0297 21.3251 21.6924C20.722 22.4454 19.7212 22.7498 18.2898 22.7498H5.70979C4.27838 22.7498 3.2776 22.4454 2.67443 21.6924C2.14355 21.0297 2.05855 20.1503 1.99214 19.4633C1.98919 19.4328 1.98628 19.4027 1.98337 19.373L1.98206 19.3596L1.58264 14.3653C1.4849 13.3335 1.80991 12.3747 2.39317 11.6425L2.41954 11.6094L2.4449 11.584Z" fill="#73818E"/>
<path fill-rule="evenodd" clip-rule="evenodd" d="M4.88012 3.41012C4.48113 3.80911 4.24979 4.57442 4.24979 6.27979V11.4298C4.24979 11.844 3.914 12.1798 3.49979 12.1798C3.08558 12.1798 2.74979 11.844 2.74979 11.4298V6.27979C2.74979 4.58515 2.94346 3.22546 3.81946 2.34945C4.69547 1.47345 6.05515 1.27979 7.74979 1.27979H9.01979C9.7222 1.27979 10.267 1.38333 10.7223 1.65691C11.1432 1.90981 11.4141 2.27165 11.6333 2.56438C11.6422 2.5763 11.651 2.58811 11.6598 2.59979L11.6606 2.60092L12.9285 4.29804C13.1067 4.53179 13.1502 4.57584 13.2 4.606C13.2299 4.62418 13.3348 4.67979 13.6898 4.67979H16.2398C17.9344 4.67979 19.2941 4.87345 20.1701 5.74946C21.0461 6.62546 21.2398 7.98515 21.2398 9.67979V11.4698C21.2398 11.884 20.904 12.2198 20.4898 12.2198C20.0756 12.2198 19.7398 11.884 19.7398 11.4698V9.67979C19.7398 7.97443 19.5085 7.20911 19.1095 6.81012C18.7105 6.41112 17.9452 6.17978 16.2398 6.17978H13.6898C13.1948 6.17978 12.7797 6.10539 12.4221 5.88857C12.1064 5.69708 11.9011 5.42597 11.7613 5.2413C11.7516 5.22854 11.7423 5.2162 11.7332 5.20432L11.7289 5.19867L10.4598 3.49979C10.4597 3.4996 10.4599 3.49997 10.4598 3.49979C10.204 3.15868 10.0941 3.02941 9.94976 2.94266C9.82259 2.86624 9.58738 2.77979 9.01979 2.77979H7.74979C6.04443 2.77979 5.27912 3.01112 4.88012 3.41012Z" fill="#73818E"/>
<path fill-rule="evenodd" clip-rule="evenodd" d="M8.67979 16.9998C8.67979 16.5856 9.01558 16.2498 9.42979 16.2498H14.5698C14.984 16.2498 15.3198 16.5856 15.3198 16.9998C15.3198 17.414 14.984 17.7498 14.5698 17.7498H9.42979C9.01558 17.7498 8.67979 17.414 8.67979 16.9998Z" fill="#73818E"/>
</svg>
