<svg width="24" height="24" viewBox="0 0 24 24" fill="none" xmlns="http://www.w3.org/2000/svg">
<path fill-rule="evenodd" clip-rule="evenodd" d="M12 5.25C7.58421 5.25 4 8.83421 4 13.25C4 17.6658 7.58421 21.25 12 21.25C16.4158 21.25 20 17.6658 20 13.25C20 8.83421 16.4158 5.25 12 5.25ZM2.5 13.25C2.5 8.00579 6.75579 3.75 12 3.75C17.2442 3.75 21.5 8.00579 21.5 13.25C21.5 18.4942 17.2442 22.75 12 22.75C6.75579 22.75 2.5 18.4942 2.5 13.25Z" fill="#73818E"/>
<path fill-rule="evenodd" clip-rule="evenodd" d="M12 7.25C12.4142 7.25 12.75 7.58579 12.75 8V13C12.75 13.4142 12.4142 13.75 12 13.75C11.5858 13.75 11.25 13.4142 11.25 13V8C11.25 7.58579 11.5858 7.25 12 7.25Z" fill="#73818E"/>
<path fill-rule="evenodd" clip-rule="evenodd" d="M8.25 2C8.25 1.58579 8.58579 1.25 9 1.25H15C15.4142 1.25 15.75 1.58579 15.75 2C15.75 2.41421 15.4142 2.75 15 2.75H9C8.58579 2.75 8.25 2.41421 8.25 2Z" fill="#73818E"/>
</svg>
