<svg width="16" height="16" viewBox="0 0 16 16" fill="none" xmlns="http://www.w3.org/2000/svg">
<path d="M6.00016 0.583313C4.25952 0.583313 2.84597 0.926848 1.8865 1.88632C0.927031 2.84579 0.583496 4.25934 0.583496 5.99998V9.99998C0.583496 11.7406 0.927031 13.1542 1.8865 14.1136C2.84597 15.0731 4.25952 15.4166 6.00016 15.4166H10.0002C11.7408 15.4166 13.1544 15.0731 14.1138 14.1136C15.0733 13.1542 15.4168 11.7406 15.4168 9.99998V8.66665C15.4168 8.25243 15.081 7.91665 14.6668 7.91665C14.2526 7.91665 13.9168 8.25243 13.9168 8.66665V9.99998C13.9168 11.5927 13.5937 12.5125 13.0532 13.053C12.5126 13.5935 11.5929 13.9166 10.0002 13.9166H6.00016C4.40747 13.9166 3.48769 13.5935 2.94716 13.053C2.40663 12.5125 2.0835 11.5927 2.0835 9.99998V5.99998C2.0835 4.40729 2.40663 3.48751 2.94716 2.94698C3.48769 2.40645 4.40747 2.08331 6.00016 2.08331H7.3335C7.74771 2.08331 8.0835 1.74753 8.0835 1.33331C8.0835 0.919099 7.74771 0.583313 7.3335 0.583313H6.00016Z" fill="#73818E"/>
<path d="M10.7168 1.33331C10.7168 0.919099 11.0526 0.583313 11.4668 0.583313H14.6668C15.081 0.583313 15.4168 0.919099 15.4168 1.33331V4.53331C15.4168 4.94753 15.081 5.28331 14.6668 5.28331C14.2526 5.28331 13.9168 4.94753 13.9168 4.53331V3.14396L9.19714 7.86365C8.90425 8.15654 8.42937 8.15654 8.13648 7.86365C7.84359 7.57076 7.84359 7.09588 8.13648 6.80299L12.8562 2.08331H11.4668C11.0526 2.08331 10.7168 1.74753 10.7168 1.33331Z" fill="#73818E"/>
</svg>
