<svg width="20" height="20" viewBox="0 0 20 20" fill="none" xmlns="http://www.w3.org/2000/svg">
<path fill-rule="evenodd" clip-rule="evenodd" d="M6.26985 3.24968C9.29274 0.22679 14.2076 0.22679 17.2305 3.24968C20.2534 6.27258 20.2534 11.1875 17.2305 14.2103L13.3405 18.1003C11.6776 19.7632 8.99274 19.7632 7.32985 18.1003C5.66695 16.4374 5.66695 13.7526 7.32985 12.0897L9.79985 9.61968C10.0927 9.32679 10.5676 9.32679 10.8605 9.61968C11.1534 9.91257 11.1534 10.3875 10.8605 10.6803L8.39051 13.1503C7.3134 14.2275 7.3134 15.9626 8.39051 17.0397C9.46761 18.1168 11.2027 18.1168 12.2798 17.0397L16.1698 13.1497C18.607 10.7126 18.607 6.74745 16.1698 4.31034C13.7327 1.87324 9.76761 1.87324 7.33051 4.31034L3.09051 8.55034C1.04402 10.5968 1.0424 13.9228 3.09164 15.9808C3.3839 16.2743 3.38289 16.7492 3.08937 17.0415C2.79586 17.3337 2.32098 17.3327 2.02872 17.0392C-0.602048 14.3972 -0.60367 10.1232 2.02985 7.48968L6.26985 3.24968Z" fill="#1B2BBD"/>
</svg>
