<svg width="16" height="16" viewBox="0 0 16 16" fill="none" xmlns="http://www.w3.org/2000/svg">
<path fill-rule="evenodd" clip-rule="evenodd" d="M4 5.5C4 5.22386 4.19898 5 4.44444 5H11.5556C11.801 5 12 5.22386 12 5.5C12 5.77614 11.801 6 11.5556 6H4.44444C4.19898 6 4 5.77614 4 5.5Z" fill="#C0C1C5"/>
<path fill-rule="evenodd" clip-rule="evenodd" d="M4 8C4 7.72386 4.22386 7.5 4.5 7.5H9.5C9.77614 7.5 10 7.72386 10 8C10 8.27614 9.77614 8.5 9.5 8.5H4.5C4.22386 8.5 4 8.27614 4 8Z" fill="#C0C1C5"/>
<path fill-rule="evenodd" clip-rule="evenodd" d="M4 10.5C4 10.2239 4.29848 10 4.66667 10H7.33333C7.70152 10 8 10.2239 8 10.5C8 10.7761 7.70152 11 7.33333 11H4.66667C4.29848 11 4 10.7761 4 10.5Z" fill="#C0C1C5"/>
</svg>
