<svg width="24" height="24" viewBox="0 0 24 24" fill="none" xmlns="http://www.w3.org/2000/svg">
<path fill-rule="evenodd" clip-rule="evenodd" d="M22.5304 2.53033C22.8233 2.23744 22.8233 1.76256 22.5304 1.46967C22.2375 1.17678 21.7626 1.17678 21.4697 1.46967L17.9808 4.95855C16.183 3.68489 14.1337 2.97998 12 2.97998C8.15205 2.97998 4.64844 5.24858 2.25752 9.00695C1.71233 9.86136 1.46503 10.9559 1.46503 12.005C1.46503 13.054 1.71232 14.1486 2.25749 15.003C3.01282 16.1885 3.88596 17.2323 4.84018 18.0992L1.46967 21.4697C1.17678 21.7626 1.17678 22.2375 1.46967 22.5304C1.76256 22.8233 2.23744 22.8233 2.53033 22.5304L10.0003 15.0604L10.0062 15.0544L15.0544 10.0062C15.0564 10.0042 15.0584 10.0023 15.0604 10.0003L22.5304 2.53033ZM14.4843 8.45503L16.9026 6.0368C15.3877 5.01886 13.7128 4.47998 12 4.47998C8.78817 4.47998 5.71192 6.37118 3.52285 9.81252L3.52222 9.81351C3.16763 10.369 2.96503 11.1642 2.96503 12.005C2.96503 12.8457 3.16763 13.6409 3.52222 14.1965C4.2258 15.3008 5.03343 16.2574 5.90221 17.0372L8.45503 14.4843C7.96046 13.7816 7.66998 12.9266 7.66998 12C7.66998 9.60577 9.60577 7.66998 12 7.66998C12.9266 7.66998 13.7816 7.96046 14.4843 8.45503ZM9.16998 12C9.16998 10.4342 10.4342 9.16998 12 9.16998C12.5104 9.16998 12.9865 9.30391 13.399 9.54027L9.54027 13.399C9.30391 12.9865 9.16998 12.5104 9.16998 12Z" fill="#73818E"/>
<path d="M19.5799 7.34558C19.9027 7.08597 20.3748 7.13716 20.6344 7.45992C21.0183 7.93719 21.3954 8.45004 21.7432 8.99812C22.2879 9.85237 22.535 10.9464 22.535 11.995C22.535 13.044 22.2877 14.1386 21.7425 14.993C19.3516 18.7514 15.848 21.02 12 21.02C10.6634 21.02 9.35481 20.7374 8.12894 20.2212C7.74719 20.0605 7.56802 19.6207 7.72876 19.239C7.88949 18.8572 8.32927 18.678 8.71103 18.8388C9.76516 19.2826 10.8765 19.52 12 19.52C15.2118 19.52 18.2881 17.6288 20.4772 14.1875L20.4778 14.1865C20.8324 13.6309 21.035 12.8357 21.035 11.995C21.035 11.1542 20.8324 10.359 20.4778 9.80352L20.4767 9.80186C20.1646 9.30994 19.8217 8.84279 19.4656 8.40006C19.206 8.0773 19.2572 7.60519 19.5799 7.34558Z" fill="#73818E"/>
<path d="M16.2476 12.836C16.3227 12.4287 16.0534 12.0376 15.646 11.9624C15.2387 11.8873 14.8476 12.1567 14.7724 12.564C14.5688 13.6682 13.6581 14.5788 12.554 14.7824C12.1467 14.8576 11.8773 15.2487 11.9524 15.656C12.0276 16.0634 12.4187 16.3327 12.826 16.2576C14.5419 15.9412 15.9312 14.5519 16.2476 12.836Z" fill="#73818E"/>
</svg>
