<svg width="24" height="24" viewBox="0 0 24 24" fill="none" xmlns="http://www.w3.org/2000/svg">
<path fill-rule="evenodd" clip-rule="evenodd" d="M11.9998 7.66974C9.60559 7.66974 7.6698 9.60553 7.6698 11.9997C7.6698 14.394 9.60559 16.3297 11.9998 16.3297C14.394 16.3297 16.3298 14.394 16.3298 11.9997C16.3298 9.60553 14.394 7.66974 11.9998 7.66974ZM9.1698 11.9997C9.1698 10.434 10.434 9.16974 11.9998 9.16974C13.5656 9.16974 14.8298 10.434 14.8298 11.9997C14.8298 13.5655 13.5656 14.8297 11.9998 14.8297C10.434 14.8297 9.1698 13.5655 9.1698 11.9997Z" fill="#73818E"/>
<path fill-rule="evenodd" clip-rule="evenodd" d="M11.9998 2.96973C8.15186 2.96973 4.64826 5.23833 2.25734 8.99669C1.71214 9.8511 1.46484 10.9457 1.46484 11.9947C1.46484 13.0436 1.71205 14.1379 2.25703 14.9923C4.64795 18.7509 8.1517 21.0197 11.9998 21.0197C15.848 21.0197 19.3517 18.7509 21.7427 14.9923C22.2876 14.1379 22.5348 13.0436 22.5348 11.9947C22.5348 10.9459 22.2876 9.85152 21.7427 8.99718C19.3517 5.23852 15.848 2.96973 11.9998 2.96973ZM3.52266 9.80227C5.71174 6.36093 8.78799 4.46973 11.9998 4.46973C15.2117 4.46973 18.288 6.36093 20.477 9.80227L20.4777 9.80325C20.8322 10.3588 21.0348 11.154 21.0348 11.9947C21.0348 12.8355 20.8322 13.6307 20.4777 14.1862L20.477 14.1872C18.288 17.6285 15.2117 19.5197 11.9998 19.5197C8.78799 19.5197 5.71174 17.6285 3.52266 14.1872L3.52204 14.1862C3.16745 13.6307 2.96484 12.8355 2.96484 11.9947C2.96484 11.154 3.16745 10.3588 3.52204 9.80325L3.52266 9.80227Z" fill="#73818E"/>
</svg>
