<svg width="24" height="24" viewBox="0 0 24 24" fill="none" xmlns="http://www.w3.org/2000/svg">
<path fill-rule="evenodd" clip-rule="evenodd" d="M3.09467 3.09467C4.42914 1.7602 6.42603 1.25 9 1.25H15C17.574 1.25 19.5709 1.7602 20.9053 3.09467C22.2398 4.42914 22.75 6.42603 22.75 9V15C22.75 17.574 22.2398 19.5709 20.9053 20.9053C19.5709 22.2398 17.574 22.75 15 22.75H9C6.42603 22.75 4.42914 22.2398 3.09467 20.9053C1.7602 19.5709 1.25 17.574 1.25 15V9C1.25 6.42603 1.7602 4.42914 3.09467 3.09467ZM4.15533 4.15533C3.2398 5.07086 2.75 6.57397 2.75 9V15C2.75 17.426 3.2398 18.9291 4.15533 19.8447C5.07086 20.7602 6.57397 21.25 9 21.25H15C17.426 21.25 18.9291 20.7602 19.8447 19.8447C20.7602 18.9291 21.25 17.426 21.25 15V9C21.25 6.57397 20.7602 5.07086 19.8447 4.15533C18.9291 3.2398 17.426 2.75 15 2.75H9C6.57397 2.75 5.07086 3.2398 4.15533 4.15533Z" fill="#73818E"/>
<path fill-rule="evenodd" clip-rule="evenodd" d="M13.7896 7.93892C14.0829 8.2314 14.0836 8.70627 13.7911 8.99958L10.7992 12L13.7911 15.0004C14.0836 15.2937 14.0829 15.7686 13.7896 16.0611C13.4963 16.3536 13.0214 16.3529 12.7289 16.0596L9.20892 12.5296C8.91703 12.2369 8.91703 11.7631 9.20892 11.4704L12.7289 7.94042C13.0214 7.64711 13.4963 7.64644 13.7896 7.93892Z" fill="#73818E"/>
</svg>
