<svg width="22" height="22" viewBox="0 0 22 22" fill="none" xmlns="http://www.w3.org/2000/svg">
<path fill-rule="evenodd" clip-rule="evenodd" d="M2.09467 2.09467C3.42914 0.760201 5.42603 0.25 8 0.25H14C16.574 0.25 18.5709 0.760201 19.9053 2.09467C21.2398 3.42914 21.75 5.42603 21.75 8V14C21.75 16.574 21.2398 18.5709 19.9053 19.9053C18.5709 21.2398 16.574 21.75 14 21.75H8C5.42603 21.75 3.42914 21.2398 2.09467 19.9053C0.760201 18.5709 0.25 16.574 0.25 14V8C0.25 5.42603 0.760201 3.42914 2.09467 2.09467ZM3.15533 3.15533C2.2398 4.07086 1.75 5.57397 1.75 8V14C1.75 16.426 2.2398 17.9291 3.15533 18.8447C4.07086 19.7602 5.57397 20.25 8 20.25H14C16.426 20.25 17.9291 19.7602 18.8447 18.8447C19.7602 17.9291 20.25 16.426 20.25 14V8C20.25 5.57397 19.7602 4.07086 18.8447 3.15533C17.9291 2.2398 16.426 1.75 14 1.75H8C5.57397 1.75 4.07086 2.2398 3.15533 3.15533Z" fill="#73818E"/>
<path fill-rule="evenodd" clip-rule="evenodd" d="M9.21042 6.93892C9.50373 6.64644 9.9786 6.64711 10.2711 6.94042L13.7911 10.4704C14.083 10.7631 14.083 11.2369 13.7911 11.5296L10.2711 15.0596C9.9786 15.3529 9.50373 15.3536 9.21042 15.0611C8.91711 14.7686 8.91644 14.2937 9.20892 14.0004L12.2008 11L9.20892 7.99958C8.91644 7.70627 8.91711 7.2314 9.21042 6.93892Z" fill="#73818E"/>
</svg>
